<?xml version="1.0" encoding="UTF-8" standalone="no"?>
<svg width="200" height="200" viewBox="0 0 200 200" fill="none" xmlns="http://www.w3.org/2000/svg">
  <!-- Tree trunk -->
  <path d="M80 60C80 60 75 100 75 140C75 180 85 190 100 190C115 190 125 180 125 140C125 100 120 60 120 60L80 60Z" fill="#5D4037"/>
  
  <!-- Tree trunk texture lines -->
  <path d="M85 70C85 70 90 100 90 140M95 65C95 65 97 110 97 150M105 65C105 65 103 110 103 150M115 70C115 70 110 100 110 140" stroke="#3E2723" stroke-width="2" stroke-linecap="round"/>
  
  <!-- Crab body -->
  <circle cx="100" cy="80" r="30" fill="#D32F2F"/>
  
  <!-- Crab eyes -->
  <circle cx="90" cy="70" r="5" fill="white"/>
  <circle cx="110" cy="70" r="5" fill="white"/>
  <circle cx="90" cy="70" r="2" fill="black"/>
  <circle cx="110" cy="70" r="2" fill="black"/>
  
  <!-- Crab claws -->
  <path d="M60 75C50 70 45 80 50 85C55 90 65 85 60 75Z" fill="#B71C1C"/>
  <path d="M140 75C150 70 155 80 150 85C145 90 135 85 140 75Z" fill="#B71C1C"/>
  
  <!-- Crab legs -->
  <path d="M75 90C65 95 60 105 65 110M85 100C75 110 70 120 75 125M115 100C125 110 130 120 125 125M125 90C135 95 140 105 135 110" stroke="#B71C1C" stroke-width="4" stroke-linecap="round"/>
  
  <!-- Crab smile -->
  <path d="M90 85C95 90 105 90 110 85" stroke="#FFFFFF" stroke-width="2" stroke-linecap="round"/>
</svg>
